<svg width="19" height="19" viewBox="0 0 19 19" fill="none" xmlns="http://www.w3.org/2000/svg">
<path d="M11.9912 13.2252L13.4737 6.2129C13.5342 5.91608 13.4989 5.70359 13.3678 5.57542C13.2367 5.44725 13.0636 5.42364 12.8484 5.50459L4.1349 8.87412C3.93992 8.94833 3.80713 9.03265 3.73653 9.12709C3.66594 9.22153 3.65753 9.31091 3.71132 9.39524C3.76511 9.47956 3.87268 9.54533 4.03404 9.59255L6.26285 10.2907L11.4365 7.0224C11.5777 6.92796 11.6853 6.90772 11.7592 6.96168C11.8063 6.99541 11.7929 7.04601 11.7189 7.11346L7.53358 10.908L7.37222 13.2151C7.52685 13.2151 7.67813 13.1409 7.82605 12.9924L8.91524 11.9401L11.1743 13.6097C11.6046 13.8525 11.8769 13.7244 11.9912 13.2252ZM18.0725 9.06638C18.0725 10.2941 17.8338 11.4679 17.3565 12.5877C16.8791 13.7075 16.237 14.6722 15.4302 15.4817C14.6234 16.2912 13.662 16.9354 12.5459 17.4143C11.4298 17.8933 10.2599 18.1328 9.03626 18.1328C7.8126 18.1328 6.64273 17.8933 5.52664 17.4143C4.41055 16.9354 3.44911 16.2912 2.6423 15.4817C1.83549 14.6722 1.1934 13.7075 0.716043 12.5877C0.238681 11.4679 0 10.2941 0 9.06638C0 7.83864 0.238681 6.66487 0.716043 5.54506C1.1934 4.42526 1.83549 3.4606 2.6423 2.65111C3.44911 1.84161 4.41055 1.19738 5.52664 0.71843C6.64273 0.239477 7.8126 0 9.03626 0C10.2599 0 11.4298 0.239477 12.5459 0.71843C13.662 1.19738 14.6234 1.84161 15.4302 2.65111C16.237 3.4606 16.8791 4.42526 17.3565 5.54506C17.8338 6.66487 18.0725 7.83864 18.0725 9.06638Z" fill="#ffff"/>
</svg>
