<svg width="19" height="19" viewBox="0 0 19 19" fill="none" xmlns="http://www.w3.org/2000/svg">
<path d="M9.34864 1.22974C13.8327 1.22974 17.4675 4.86456 17.4675 9.34863C17.4675 13.8327 13.8327 17.4675 9.34864 17.4675C7.91385 17.4698 6.50431 17.0901 5.26484 16.3674L1.233 17.4675L2.33067 13.4341C1.60735 12.1942 1.22735 10.784 1.22975 9.34863C1.22975 4.86456 4.86458 1.22974 9.34864 1.22974ZM6.58172 5.53275L6.41934 5.53924C6.31422 5.54565 6.21148 5.57326 6.11732 5.62043C6.02925 5.67031 5.94885 5.73266 5.87862 5.80554C5.7812 5.89729 5.72599 5.97685 5.66672 6.05398C5.36642 6.44442 5.20473 6.92377 5.20719 7.41633C5.20882 7.81416 5.31274 8.20143 5.47512 8.56353C5.80718 9.29585 6.35358 10.0712 7.07454 10.7897C7.24828 10.9627 7.41878 11.1364 7.60227 11.298C8.4981 12.0867 9.56562 12.6555 10.7199 12.9591L11.1811 13.0297C11.3313 13.0379 11.4815 13.0265 11.6325 13.0192C11.8689 13.007 12.0998 12.9429 12.3088 12.8316C12.4151 12.7769 12.5189 12.7173 12.6197 12.653C12.6197 12.653 12.6547 12.6303 12.7212 12.5799C12.8308 12.4988 12.8982 12.4411 12.9892 12.3461C13.0565 12.2763 13.115 12.1943 13.1596 12.1009C13.223 11.9686 13.2863 11.7161 13.3123 11.5058C13.3318 11.3451 13.3261 11.2574 13.3236 11.203C13.3204 11.1161 13.2481 11.026 13.1694 10.9878L12.6969 10.7759C12.6969 10.7759 11.9905 10.4682 11.5586 10.2717C11.5134 10.252 11.465 10.2407 11.4157 10.2385C11.3602 10.2328 11.304 10.239 11.2511 10.2568C11.1982 10.2746 11.1496 10.3035 11.1088 10.3416C11.1048 10.3399 11.0504 10.3862 10.4634 11.0974C10.4297 11.1427 10.3833 11.1769 10.3301 11.1957C10.2768 11.2145 10.2192 11.217 10.1646 11.203C10.1117 11.1888 10.0599 11.1709 10.0095 11.1494C9.90884 11.1072 9.87393 11.0909 9.80492 11.0617C9.33895 10.8584 8.90753 10.5836 8.5262 10.2474C8.4239 10.1581 8.32891 10.0607 8.23148 9.96647C7.91207 9.66058 7.6337 9.31453 7.40335 8.937L7.35545 8.85987C7.32105 8.80804 7.29323 8.75213 7.27264 8.69343C7.24179 8.57409 7.32216 8.47828 7.32216 8.47828C7.32216 8.47828 7.51945 8.26232 7.6112 8.14541C7.7005 8.03174 7.77601 7.92133 7.82472 7.84257C7.92053 7.68831 7.95057 7.53 7.90023 7.4074C7.6729 6.85207 7.43745 6.29917 7.19551 5.75033C7.14761 5.64154 7.00553 5.5636 6.87644 5.54817C6.83259 5.5433 6.78875 5.53843 6.74491 5.53518C6.63588 5.52977 6.52662 5.53085 6.41772 5.53843L6.58091 5.53194L6.58172 5.53275Z" fill="#ffff"/>
</svg>
