<svg width="19" height="13" viewBox="0 0 19 13" fill="none" xmlns="http://www.w3.org/2000/svg">
<path d="M9.13782 0H9.23883C10.1718 0.00341633 14.899 0.0375798 16.1736 0.38149C16.559 0.486449 16.9101 0.691034 17.1919 0.974801C17.4737 1.25857 17.6764 1.61158 17.7796 1.99855C17.8943 2.43128 17.9749 3.00409 18.0293 3.59511L18.0407 3.71355L18.0657 4.00963L18.0747 4.12806C18.1485 5.1689 18.1576 6.14369 18.1587 6.35664V6.44205C18.1576 6.66297 18.1474 7.70381 18.0657 8.78793L18.0566 8.9075L18.0464 9.02593C17.9896 9.67731 17.9056 10.3241 17.7796 10.8001C17.6767 11.1873 17.4741 11.5404 17.1923 11.8243C16.9104 12.1081 16.5591 12.3126 16.1736 12.4172C14.857 12.7725 9.85286 12.7976 9.15938 12.7987H8.99821C8.6475 12.7987 7.19698 12.7919 5.67609 12.7395L5.48314 12.7326L5.3844 12.7281L5.19032 12.7201L4.99623 12.7121C3.73639 12.6563 2.53671 12.5664 1.98397 12.4161C1.59862 12.3115 1.24743 12.1072 0.965565 11.8236C0.6837 11.54 0.481063 11.1871 0.377952 10.8001C0.251968 10.3253 0.167979 9.67731 0.111229 9.02593L0.102149 8.90636L0.0930693 8.78793C0.0370548 8.01629 0.0060153 7.24304 0 6.46938L0 6.32931C0.00226998 6.08448 0.0113499 5.23837 0.0726395 4.30457L0.0805844 4.18728L0.0839894 4.12806L0.0930693 4.00963L0.118039 3.71355L0.129389 3.59511C0.183869 3.00409 0.264453 2.43015 0.379087 1.99855C0.482024 1.61142 0.684584 1.25824 0.96646 0.97443C1.24834 0.690615 1.59962 0.486134 1.9851 0.38149C2.53784 0.233449 3.73753 0.142347 4.99737 0.0854081L5.19032 0.0774367L5.38554 0.0706042L5.48314 0.0671879L5.67723 0.0592165C6.75741 0.024341 7.83803 0.00497971 8.91876 0.00113883H9.13782V0ZM7.26395 3.65547V9.14209L11.9821 6.39992L7.26395 3.65547Z" fill="#ffff"/>
</svg>
